<?xml version="1.0" encoding="UTF-8"?>
<svg id="Warstwa_1" xmlns="http://www.w3.org/2000/svg" version="1.1" viewBox="0 0 398.63 398.63">
  <!-- Generator: Adobe Illustrator 29.2.1, SVG Export Plug-In . SVG Version: 2.1.0 Build 116)  -->
  <defs>
    <style>
      .st0 {
        fill: #1d1d1b;
      }

      .st1 {
        fill: none;
        stroke: #1d1d1b;
        stroke-miterlimit: 10;
        stroke-width: 3px;
      }
    </style>
  </defs>
  <g>
    <path class="st0" d="M378.33,286.05c-23.14,30.91-52.87,56.18-80.72,27.34-12.12-11.36-18.77-26.86-29.53-38.63-10.95-11.35-21.16-9.57-20.2,7.59.13,3.94.73,7.89,1.54,11.81,4,15.49,6.93,32.32,2.74,48.45-5.94,25.12-36.3,37.01-59.99,31.12-22.86-5.63-37.83-17.41-50.09-36.94,12.56,19.21,27.62,30.37,50.39,35.65,22.94,5.42,52.05-6.05,57.55-30.39,2.97-11.58,2.07-23.92-.26-35.59-2.33-11.83-7.54-24.6-2.33-36.5,2.01-4.4,7.7-5.93,11.99-4.07,11.91,4.95,17.78,17.35,24.73,27.15,8.45,12.89,18.86,27.94,35.33,30.32,24.47,2.21,42.91-20.01,58.84-37.3"/>
    <path class="st0" d="M397.59,203.35c-7.21,33.35-21.51,72.26-60.61,78.71-22.85,2.71-35.66-15.2-48.86-30.26-9.95-10.74-20.19-21.77-33.06-28.98-9.22-5.49-18.24-3.61-25.52,3.79-10.29,11.16-7.33,27.42-4.83,41.23,3.59,19.37,8.88,38.71,8.37,58.63-.54,25.5-16.44,36.16-40.98,29.87-19.25-4.82-38.28-11.88-55.07-22.43,16.92,10.14,36.16,16.67,55.35,21.12,42.59,9.72,41.44-27.86,35.74-57.77-2.83-23.17-20.25-61.91,5.73-77.12,7.08-4.62,15.52-3.46,22.37.56,13.16,7.44,23.5,18.7,33.55,29.66,12.6,14.73,24.9,32.61,47.03,30.15,38.23-6.1,53.21-44.39,60.8-77.15"/>
    <path class="st0" d="M322.78,87.09s-12.63-10.71-18.54-15.12c-19.11-14.27-39.58-21.15-56.03-24.43-7.23-1.53-14.58-2.44-21.98-2.74-6.67-.32-10.69-.03-10.69-.03h0c-24.11.98-48.09,8.57-68.49,23.21-27.25,17.68-45.38,45.82-56.66,75.42-10.79,29.27-19.85,60.07-18.67,91.62,1.96,42.85,25.31,82.29,64.89,99.77l5.8,2.36-1.95-1.98c-13.75-14.55-26.41-29.7-35.1-47.36-8.69-17.14-12.83-35.96-16.49-54.75-1.65-7.88-2.83-15.96-3.4-24.08,13.5,1.91,27.08-1.2,39.09-7.96,12.82-7.21,23.29-17.82,34.2-27.46,2.76-2.44,5.56-4.84,8.44-7.15,1.36-1.09,2.74-2.17,4.14-3.2.26-.18.75-.53.81-.57.68-.44,1.35-.87,2.05-1.28.53-.31,1.07-.6,1.6-.91.09-.05.59-.31.88-.46,1.03-.5,2.07-.97,3.13-1.4.44-.18,2.61-.95,2.76-1.03,1.33-.42,2.67-.82,4.03-1.16.65-.16,1.31-.31,1.96-.46.15-.04.21-.05.31-.08.1-.01.16-.02.31-.05,1.34-.22,2.68-.43,4.03-.59.68-.08,1.36-.15,2.03-.2.07,0,.84-.05,1.19-.07,1.25-.05,2.49-.07,3.74-.05,4.78.09,9.96.82,14.84,2.59,12.73,4.63,21.18,14.69,24.51,27.6,1.29,5.01,16.32,1.13,15-3.98-3.12-12.11-10.61-22.2-21.77-28.14-11.02-5.86-24.15-7.12-36.42-5.88-12.03,1.21-24.46,5.09-34.42,11.99-12.65,8.75-23.16,20.12-35.09,29.74-5.85,4.71-11.81,8.8-18.45,11.11-.12.02-1.49.44-1.76.51-.28.07-1.67.39-1.79.44-1.86.34-3.48.51-4.93.52-4.24.04-8.31-.7-12.38-1.84-.75-.21-1.58-.28-2.43-.26-.14-18.34,3.15-36.62,11.7-53.14,8.65-17.74,22.22-32.78,37.24-45.26,25.35-22.22,58.2-34.21,91.49-35.14,9.85.66,50.14,4.95,67.65,31.28,15.59,23.43,14.48,22.67,16.72,26.26,0,0,9.25,15.13,22.47,9.86,16.61-6.61,6.33-32.85-9.57-46.07Z"/>
    <path class="st0" d="M40.57,184.13c3.74,12.72,13.55,18.52,21.63,21.15-10.22,3.07-15.8,9.92-18.82,15.91-.9,1.78-1.61,3.56-2.18,5.27-3.87-12.44-13.61-18.1-21.6-20.68,12.46-3.88,18.27-13.65,20.97-21.65M40.96,172.49s-.97,33.02-33.31,33.07c.18,0,33.31.04,33.31,32.98,0,0,0-32.98,33.24-32.98h.07s-33.31-.05-33.31-32.98v-.09Z"/>
  </g>
  <circle class="st1" cx="198.82" cy="199.32" r="197.78"/>
</svg>