<svg width="431" height="459" viewBox="0 0 431 459" fill="none" xmlns="http://www.w3.org/2000/svg">
<g opacity="0.9">
<path d="M267.889 51.9998C178.046 0.878247 154.831 38.6018 101.948 132.8C49.0639 226.999 13.4094 322.023 103.252 373.144C193.095 424.266 260.965 446.66 313.848 352.461C366.732 258.263 357.732 103.121 267.889 51.9998Z" fill="url(#paint0_linear_89_153)"/>
<path d="M267.889 51.9998C178.046 0.878247 154.831 38.6018 101.948 132.8C49.0639 226.999 13.4094 322.023 103.252 373.144C193.095 424.266 260.965 446.66 313.848 352.461C366.732 258.263 357.732 103.121 267.889 51.9998Z" fill="url(#paint1_linear_89_153)"/>
</g>
<path d="M228.52 103.76H181.48C171.754 103.76 163.84 111.592 163.84 121.22V167.78C163.84 177.408 171.754 185.24 181.48 185.24H228.52C238.245 185.24 246.16 177.408 246.16 167.78V121.22C246.16 111.592 238.245 103.76 228.52 103.76ZM224.6 148.38V156.14V156.181H224.596C224.572 161.51 220.188 165.84 214.8 165.84H213.82C211.885 165.84 210.031 165.025 208.732 163.605C207.434 162.187 206.801 160.272 206.993 158.358C207.342 154.937 210.462 152.26 214.1 152.26H216.76C218.922 152.26 220.68 150.52 220.68 148.38V129.378L197.16 133.743V154.2V161.96C197.16 167.309 192.764 171.66 187.36 171.66H186.38C184.445 171.66 182.591 170.845 181.292 169.425C179.994 168.007 179.361 166.092 179.553 164.178C179.902 160.757 183.022 158.08 186.66 158.08H189.32C191.482 158.08 193.24 156.34 193.24 154.2V125.785C193.24 123.917 194.586 122.312 196.441 121.971L221.119 117.393C221.979 117.232 222.865 117.457 223.538 118.011C224.214 118.566 224.6 119.383 224.6 120.25V148.38Z" fill="black"/>
<path d="M170.252 254.02C170.252 253.33 170.042 252.37 169.622 251.14C169.232 249.91 168.647 248.245 167.867 246.145H154.142C153.512 248.005 153.032 249.535 152.702 250.735C152.372 251.935 152.207 252.88 152.207 253.57C152.207 254.44 152.492 254.98 153.062 255.19C153.632 255.37 154.487 255.46 155.627 255.46L155.717 256H145.592L145.682 255.46C146.462 255.46 147.137 255.37 147.707 255.19C148.307 255.01 148.862 254.62 149.372 254.02C149.882 253.42 150.422 252.49 150.992 251.23C151.562 249.97 152.222 248.245 152.972 246.055L156.977 234.49C157.577 232.78 158.027 231.445 158.327 230.485C158.627 229.495 158.822 228.73 158.912 228.19C159.032 227.65 159.092 227.185 159.092 226.795C159.092 226.105 158.882 225.64 158.462 225.4C158.042 225.13 157.232 224.995 156.032 224.995L155.942 224.5H163.367L171.332 246.055C172.142 248.245 172.802 249.97 173.312 251.23C173.852 252.49 174.347 253.42 174.797 254.02C175.247 254.62 175.727 255.01 176.237 255.19C176.747 255.37 177.407 255.46 178.217 255.46L178.307 256H167.057L167.147 255.46C168.197 255.46 168.977 255.385 169.487 255.235C169.997 255.055 170.252 254.65 170.252 254.02ZM160.847 226.93L154.502 245.065H167.507L160.847 226.93ZM191.729 234.265C193.259 234.265 194.564 234.595 195.644 235.255C196.724 235.915 197.579 236.8 198.209 237.91C198.869 238.99 199.349 240.19 199.649 241.51C199.949 242.8 200.099 244.105 200.099 245.425C200.099 247.495 199.664 249.37 198.794 251.05C197.924 252.7 196.724 254.02 195.194 255.01C193.664 255.97 191.909 256.45 189.929 256.45C188.789 256.45 187.814 256.345 187.004 256.135C186.194 255.925 185.459 255.625 184.799 255.235V260.545C184.799 262.165 184.829 263.455 184.889 264.415C184.949 265.405 185.099 266.14 185.339 266.62C185.609 267.1 185.999 267.415 186.509 267.565C187.019 267.715 187.724 267.79 188.624 267.79L188.714 268.33H177.824L177.914 267.79C178.784 267.79 179.474 267.715 179.984 267.565C180.494 267.415 180.869 267.1 181.109 266.62C181.349 266.14 181.499 265.405 181.559 264.415C181.619 263.455 181.649 262.165 181.649 260.545V241.555C181.649 240.115 181.619 238.975 181.559 238.135C181.499 237.295 181.349 236.68 181.109 236.29C180.869 235.87 180.494 235.6 179.984 235.48C179.474 235.36 178.784 235.3 177.914 235.3L177.824 234.805C177.824 234.805 178.139 234.76 178.769 234.67C179.429 234.58 180.284 234.49 181.334 234.4C182.384 234.31 183.539 234.265 184.799 234.265V240.16C185.099 239.23 185.519 238.315 186.059 237.415C186.629 236.515 187.379 235.765 188.309 235.165C189.239 234.565 190.379 234.265 191.729 234.265ZM189.344 255.145C190.784 255.145 191.969 254.86 192.899 254.29C193.859 253.72 194.609 252.97 195.149 252.04C195.719 251.08 196.109 250.03 196.319 248.89C196.559 247.75 196.679 246.595 196.679 245.425C196.679 244.495 196.604 243.475 196.454 242.365C196.304 241.225 196.019 240.16 195.599 239.17C195.209 238.15 194.639 237.31 193.889 236.65C193.169 235.99 192.209 235.66 191.009 235.66C190.049 235.66 189.209 235.93 188.489 236.47C187.799 236.98 187.214 237.655 186.734 238.495C186.254 239.335 185.864 240.22 185.564 241.15C185.294 242.08 185.099 242.95 184.979 243.76C184.859 244.57 184.799 245.23 184.799 245.74V252.76C185.219 253.51 185.849 254.095 186.689 254.515C187.529 254.935 188.414 255.145 189.344 255.145ZM216.91 234.265C218.44 234.265 219.745 234.595 220.825 235.255C221.905 235.915 222.76 236.8 223.39 237.91C224.05 238.99 224.53 240.19 224.83 241.51C225.13 242.8 225.28 244.105 225.28 245.425C225.28 247.495 224.845 249.37 223.975 251.05C223.105 252.7 221.905 254.02 220.375 255.01C218.845 255.97 217.09 256.45 215.11 256.45C213.97 256.45 212.995 256.345 212.185 256.135C211.375 255.925 210.64 255.625 209.98 255.235V260.545C209.98 262.165 210.01 263.455 210.07 264.415C210.13 265.405 210.28 266.14 210.52 266.62C210.79 267.1 211.18 267.415 211.69 267.565C212.2 267.715 212.905 267.79 213.805 267.79L213.895 268.33H203.005L203.095 267.79C203.965 267.79 204.655 267.715 205.165 267.565C205.675 267.415 206.05 267.1 206.29 266.62C206.53 266.14 206.68 265.405 206.74 264.415C206.8 263.455 206.83 262.165 206.83 260.545V241.555C206.83 240.115 206.8 238.975 206.74 238.135C206.68 237.295 206.53 236.68 206.29 236.29C206.05 235.87 205.675 235.6 205.165 235.48C204.655 235.36 203.965 235.3 203.095 235.3L203.005 234.805C203.005 234.805 203.32 234.76 203.95 234.67C204.61 234.58 205.465 234.49 206.515 234.4C207.565 234.31 208.72 234.265 209.98 234.265V240.16C210.28 239.23 210.7 238.315 211.24 237.415C211.81 236.515 212.56 235.765 213.49 235.165C214.42 234.565 215.56 234.265 216.91 234.265ZM214.525 255.145C215.965 255.145 217.15 254.86 218.08 254.29C219.04 253.72 219.79 252.97 220.33 252.04C220.9 251.08 221.29 250.03 221.5 248.89C221.74 247.75 221.86 246.595 221.86 245.425C221.86 244.495 221.785 243.475 221.635 242.365C221.485 241.225 221.2 240.16 220.78 239.17C220.39 238.15 219.82 237.31 219.07 236.65C218.35 235.99 217.39 235.66 216.19 235.66C215.23 235.66 214.39 235.93 213.67 236.47C212.98 236.98 212.395 237.655 211.915 238.495C211.435 239.335 211.045 240.22 210.745 241.15C210.475 242.08 210.28 242.95 210.16 243.76C210.04 244.57 209.98 245.23 209.98 245.74V252.76C210.4 253.51 211.03 254.095 211.87 254.515C212.71 254.935 213.595 255.145 214.525 255.145ZM235.296 222.88V248.17C235.296 249.82 235.326 251.14 235.386 252.13C235.446 253.09 235.596 253.81 235.836 254.29C236.106 254.77 236.496 255.085 237.006 255.235C237.516 255.385 238.221 255.46 239.121 255.46L239.211 256H228.186L228.276 255.46C229.206 255.46 229.926 255.385 230.436 255.235C230.976 255.085 231.366 254.77 231.606 254.29C231.846 253.81 231.996 253.09 232.056 252.13C232.116 251.14 232.146 249.82 232.146 248.17V230.98C232.146 229.36 232.116 228.07 232.056 227.11C231.996 226.15 231.846 225.445 231.606 224.995C231.366 224.545 230.976 224.26 230.436 224.14C229.926 223.99 229.206 223.915 228.276 223.915L228.186 223.42C228.186 223.42 228.516 223.375 229.176 223.285C229.836 223.195 230.706 223.105 231.786 223.015C232.896 222.925 234.066 222.88 235.296 222.88ZM260.532 244.615H245.772V245.38C245.772 247.63 246.102 249.475 246.762 250.915C247.422 252.355 248.292 253.42 249.372 254.11C250.452 254.8 251.607 255.145 252.837 255.145C254.097 255.145 255.312 254.875 256.482 254.335C257.682 253.765 258.627 252.835 259.317 251.545L259.992 251.905C259.152 253.555 258.027 254.725 256.617 255.415C255.237 256.105 253.752 256.45 252.162 256.45C250.482 256.45 248.892 256.045 247.392 255.235C245.892 254.395 244.677 253.15 243.747 251.5C242.817 249.85 242.352 247.81 242.352 245.38C242.352 243.34 242.727 241.48 243.477 239.8C244.227 238.12 245.292 236.785 246.672 235.795C248.082 234.775 249.777 234.265 251.757 234.265C253.707 234.265 255.327 234.73 256.617 235.66C257.907 236.59 258.882 237.835 259.542 239.395C260.202 240.955 260.532 242.695 260.532 244.615ZM251.802 235.165C249.972 235.165 248.577 235.945 247.617 237.505C246.657 239.065 246.072 241 245.862 243.31H257.067C256.977 240.85 256.527 238.885 255.717 237.415C254.907 235.915 253.602 235.165 251.802 235.165ZM179.722 287.67V298.83C179.722 301.02 179.767 302.76 179.857 304.05C179.947 305.34 180.127 306.3 180.397 306.93C180.697 307.56 181.132 307.98 181.702 308.19C182.302 308.37 183.112 308.46 184.132 308.46L184.222 309H172.162L172.252 308.46C173.272 308.46 174.067 308.37 174.637 308.19C175.237 307.98 175.672 307.56 175.942 306.93C176.212 306.3 176.377 305.34 176.437 304.05C176.527 302.76 176.572 301.02 176.572 298.83V279.795L163.972 308.55L150.967 284.205V298.74C150.967 300.93 151.027 302.685 151.147 304.005C151.297 305.295 151.552 306.27 151.912 306.93C152.272 307.56 152.767 307.98 153.397 308.19C154.057 308.37 154.897 308.46 155.917 308.46L156.007 309H144.937L145.027 308.46C146.047 308.46 146.872 308.37 147.502 308.19C148.132 307.98 148.612 307.56 148.942 306.93C149.302 306.27 149.542 305.295 149.662 304.005C149.782 302.685 149.842 300.93 149.842 298.74V287.715C149.842 285.495 149.782 283.74 149.662 282.45C149.542 281.16 149.302 280.2 148.942 279.57C148.612 278.91 148.132 278.49 147.502 278.31C146.872 278.1 146.047 277.995 145.027 277.995L144.937 277.5H150.967L164.872 303.735L176.347 277.5H184.222L184.132 277.995C183.112 277.995 182.302 278.1 181.702 278.31C181.132 278.49 180.697 278.91 180.397 279.57C180.127 280.2 179.947 281.16 179.857 282.45C179.767 283.74 179.722 285.48 179.722 287.67ZM205.94 297.075C205.94 295.185 205.88 293.655 205.76 292.485C205.67 291.315 205.475 290.43 205.175 289.83C204.905 289.2 204.47 288.78 203.87 288.57C203.27 288.36 202.475 288.255 201.485 288.255L201.395 287.76C201.395 287.76 201.77 287.715 202.52 287.625C203.3 287.535 204.275 287.46 205.445 287.4C206.615 287.31 207.83 287.265 209.09 287.265V299.01C209.09 301.14 209.12 302.79 209.18 303.96C209.27 305.13 209.45 305.955 209.72 306.435C209.99 306.885 210.395 307.11 210.935 307.11C211.325 307.11 211.685 307.05 212.015 306.93C212.345 306.78 212.66 306.63 212.96 306.48L213.185 306.93C213.185 306.93 212.87 307.125 212.24 307.515C211.64 307.875 210.83 308.25 209.81 308.64C208.79 309.03 207.65 309.225 206.39 309.225C206.27 308.445 206.165 307.62 206.075 306.75C205.985 305.85 205.94 304.665 205.94 303.195C205.64 304.155 205.205 305.115 204.635 306.075C204.095 307.035 203.345 307.845 202.385 308.505C201.455 309.135 200.255 309.45 198.785 309.45C196.475 309.45 194.75 308.835 193.61 307.605C192.47 306.345 191.9 304.56 191.9 302.25V297.885C191.9 295.695 191.855 293.955 191.765 292.665C191.705 291.375 191.525 290.415 191.225 289.785C190.925 289.155 190.475 288.75 189.875 288.57C189.305 288.36 188.495 288.255 187.445 288.255L187.355 287.76C187.355 287.76 187.73 287.715 188.48 287.625C189.26 287.535 190.235 287.46 191.405 287.4C192.575 287.31 193.79 287.265 195.05 287.265V301.8C195.05 303.72 195.35 305.25 195.95 306.39C196.55 307.5 197.675 308.055 199.325 308.055C200.585 308.055 201.635 307.68 202.475 306.93C203.315 306.18 203.99 305.235 204.5 304.095C205.01 302.955 205.37 301.755 205.58 300.495C205.82 299.235 205.94 298.095 205.94 297.075ZM222.866 308.145C224.336 308.145 225.521 307.815 226.421 307.155C227.321 306.495 227.771 305.58 227.771 304.41C227.771 303.42 227.501 302.625 226.961 302.025C226.421 301.425 225.731 300.915 224.891 300.495C224.051 300.075 223.151 299.67 222.191 299.28C221.261 298.89 220.376 298.455 219.536 297.975C218.696 297.465 218.006 296.82 217.466 296.04C216.926 295.23 216.656 294.21 216.656 292.98C216.656 291.75 216.986 290.715 217.646 289.875C218.336 289.005 219.206 288.36 220.256 287.94C221.336 287.49 222.446 287.265 223.586 287.265C224.666 287.265 225.791 287.385 226.961 287.625C228.161 287.865 229.076 288.165 229.706 288.525C229.706 289.485 229.646 290.49 229.526 291.54C229.406 292.59 229.286 293.505 229.166 294.285L228.626 294.15C228.626 292.74 228.401 291.63 227.951 290.82C227.501 289.98 226.901 289.38 226.151 289.02C225.431 288.66 224.651 288.48 223.811 288.48C222.761 288.48 221.831 288.795 221.021 289.425C220.211 290.055 219.806 291.03 219.806 292.35C219.806 293.25 220.076 293.985 220.616 294.555C221.156 295.125 221.846 295.62 222.686 296.04C223.526 296.43 224.411 296.82 225.341 297.21C226.301 297.6 227.201 298.05 228.041 298.56C228.881 299.07 229.571 299.715 230.111 300.495C230.651 301.245 230.921 302.22 230.921 303.42C230.921 304.77 230.561 305.895 229.841 306.795C229.121 307.665 228.161 308.325 226.961 308.775C225.791 309.225 224.531 309.45 223.181 309.45C222.071 309.45 220.901 309.3 219.671 309C218.471 308.67 217.436 308.175 216.566 307.515C216.566 306.555 216.611 305.625 216.701 304.725C216.791 303.795 216.896 302.955 217.016 302.205L217.556 302.295C217.556 303.705 217.826 304.845 218.366 305.715C218.906 306.555 219.581 307.17 220.391 307.56C221.201 307.95 222.026 308.145 222.866 308.145ZM241.862 287.265V301.575C241.862 303.135 241.892 304.38 241.952 305.31C242.012 306.21 242.162 306.885 242.402 307.335C242.642 307.785 243.017 308.085 243.527 308.235C244.037 308.385 244.742 308.46 245.642 308.46L245.732 309H234.752L234.842 308.46C235.772 308.46 236.492 308.385 237.002 308.235C237.542 308.085 237.932 307.785 238.172 307.335C238.412 306.855 238.562 306.15 238.622 305.22C238.682 304.29 238.712 303.045 238.712 301.485V297.885C238.712 295.695 238.667 293.955 238.577 292.665C238.517 291.375 238.337 290.415 238.037 289.785C237.737 289.155 237.287 288.75 236.687 288.57C236.117 288.36 235.307 288.255 234.257 288.255L234.167 287.76C234.167 287.76 234.542 287.715 235.292 287.625C236.072 287.535 237.047 287.46 238.217 287.4C239.387 287.31 240.602 287.265 241.862 287.265ZM237.587 280.065C237.587 279.375 237.842 278.775 238.352 278.265C238.862 277.755 239.462 277.5 240.152 277.5C240.842 277.5 241.442 277.755 241.952 278.265C242.462 278.775 242.717 279.375 242.717 280.065C242.717 280.755 242.462 281.355 241.952 281.865C241.442 282.375 240.842 282.63 240.152 282.63C239.462 282.63 238.862 282.375 238.352 281.865C237.842 281.355 237.587 280.755 237.587 280.065ZM265.55 304.545L266.225 304.905C265.385 306.555 264.29 307.725 262.94 308.415C261.59 309.105 260.12 309.45 258.53 309.45C256.88 309.45 255.32 309.045 253.85 308.235C252.38 307.395 251.18 306.15 250.25 304.5C249.35 302.85 248.9 300.81 248.9 298.38C248.9 296.34 249.26 294.48 249.98 292.8C250.73 291.12 251.84 289.785 253.31 288.795C254.78 287.775 256.625 287.265 258.845 287.265C260.075 287.265 261.245 287.4 262.355 287.67C263.495 287.94 264.425 288.345 265.145 288.885C265.865 289.425 266.225 290.1 266.225 290.91C266.225 291.39 266.075 291.765 265.775 292.035C265.475 292.305 265.07 292.44 264.56 292.44C264.02 292.44 263.6 292.305 263.3 292.035C263.03 291.735 262.79 291.375 262.58 290.955C262.4 290.505 262.175 290.07 261.905 289.65C261.665 289.23 261.305 288.885 260.825 288.615C260.375 288.315 259.73 288.165 258.89 288.165C257.39 288.165 256.145 288.6 255.155 289.47C254.195 290.31 253.475 291.465 252.995 292.935C252.545 294.405 252.32 296.04 252.32 297.84C252.32 300.27 252.635 302.25 253.265 303.78C253.925 305.28 254.78 306.39 255.83 307.11C256.88 307.8 258.005 308.145 259.205 308.145C260.435 308.145 261.635 307.875 262.805 307.335C263.975 306.765 264.89 305.835 265.55 304.545Z" fill="black"/>
<defs>
<linearGradient id="paint0_linear_89_153" x1="342.313" y1="301.76" x2="87.4268" y2="158.665" gradientUnits="userSpaceOnUse">
<stop stop-color="#DD587C"/>
<stop offset="1" stop-color="#76C4ED"/>
</linearGradient>
<linearGradient id="paint1_linear_89_153" x1="342.313" y1="301.76" x2="87.4268" y2="158.665" gradientUnits="userSpaceOnUse">
<stop stop-color="#DD587C"/>
<stop offset="1" stop-color="#76C4ED"/>
</linearGradient>
</defs>
</svg>
