<svg width="493" height="206" viewBox="0 0 493 206" fill="none" xmlns="http://www.w3.org/2000/svg">
<g clip-path="url(#clip0_773_411)">
<path d="M300.857 106.417C300.857 124.547 286.16 139.244 268.03 139.244C249.9 139.244 235.203 124.547 235.203 106.417C235.203 88.287 249.9 73.5898 268.03 73.5898C286.16 73.5898 300.857 88.287 300.857 106.417Z" fill="#0BEE73"/>
<path d="M464.629 205.617C479.77 205.617 492.045 193.342 492.045 178.201C492.045 163.06 479.77 150.785 464.629 150.785C449.487 150.785 437.213 163.06 437.213 178.201C437.213 193.342 449.487 205.617 464.629 205.617Z" fill="#0BEE73"/>
<path d="M393.927 32.827C393.927 50.9568 379.23 65.654 361.1 65.654C342.971 65.654 328.273 50.9568 328.273 32.827C328.273 14.6971 342.971 0 361.1 0C379.23 0 393.927 14.6971 393.927 32.827Z" fill="#F55E5C"/>
<path d="M65.654 134.554C65.654 152.684 50.9568 167.381 32.827 167.381C14.6971 167.381 0 152.684 0 134.554C0 116.424 14.6971 101.727 32.827 101.727C50.9568 101.727 65.654 116.424 65.654 134.554Z" fill="#F7793C"/>
<path d="M194.439 32.8271C194.439 46.9724 182.649 58.4394 168.105 58.4394C153.561 58.4394 141.771 46.9724 141.771 32.8271C141.771 18.6818 153.561 7.21484 168.105 7.21484C182.649 7.21484 194.439 18.6818 194.439 32.8271Z" fill="#F55E5C"/>
</g>
<defs>
<clipPath id="clip0_773_411">
<rect width="493" height="206" fill="white"/>
</clipPath>
</defs>
</svg>
