<svg width="1667" height="304" viewBox="0 0 1667 304" fill="none" xmlns="http://www.w3.org/2000/svg">
<path d="M1666.5 152C1666.5 162.294 1660.78 172.414 1649.73 182.26C1638.69 192.104 1622.37 201.624 1601.3 210.706C1559.17 228.869 1498.19 245.238 1422.78 258.988C1271.99 286.488 1063.64 303.5 833.5 303.5C603.356 303.5 395.012 286.488 244.216 258.988C168.814 245.238 107.825 228.869 65.6985 210.706C44.6333 201.624 28.3128 192.104 17.2664 182.26C6.21812 172.414 0.5 162.294 0.5 152C0.5 141.706 6.21812 131.586 17.2664 121.74C28.3128 111.896 44.6333 102.376 65.6985 93.2939C107.825 75.1308 168.814 58.7623 244.216 45.0117C395.012 17.5119 603.356 0.5 833.5 0.5C1063.64 0.5 1271.99 17.5119 1422.78 45.0117C1498.19 58.7623 1559.17 75.1308 1601.3 93.2939C1622.37 102.376 1638.69 111.896 1649.73 121.74C1660.78 131.586 1666.5 141.706 1666.5 152Z" stroke="white"/>
</svg>
