<svg width="42" height="42" viewBox="0 0 42 42" fill="none" xmlns="http://www.w3.org/2000/svg">
<g id="Group">
<g id="Clip path group">
<mask id="mask0_4068_33" style="mask-type:luminance" maskUnits="userSpaceOnUse" x="0" y="0" width="42" height="42">
<g id="SVGID_00000170980134926788928000000000553113072940639111_">
<path id="Vector" d="M12.2416 0.144659C10.0183 0.249597 8.49971 0.60574 7.17272 1.1257C5.79905 1.66121 4.63463 2.37885 3.47626 3.54198C2.31656 4.70578 1.60431 5.87229 1.07286 7.24734C0.558327 8.57767 0.209664 10.0969 0.111455 12.3216C0.0139982 14.5504 -0.00836002 15.2613 0.00250565 20.9355C0.0133295 26.609 0.0383624 27.3212 0.144637 29.5506C0.250912 31.7733 0.605718 33.2912 1.12568 34.6188C1.66186 35.9925 2.37879 37.1563 3.54258 38.3154C4.70571 39.4745 5.87285 40.186 7.24857 40.7182C8.57753 41.232 10.0975 41.5821 12.3215 41.6795C14.5502 41.7777 15.2617 41.7994 20.9345 41.7886C26.6099 41.7777 27.3214 41.7526 29.5502 41.647C31.7735 41.5407 33.2907 41.1846 34.619 40.666C35.9927 40.1285 37.1571 39.4129 38.3155 38.2491C39.4739 37.0859 40.1861 35.9187 40.7176 34.543C41.2321 33.214 41.5821 31.6941 41.6789 29.4714C41.7764 27.2413 41.7994 26.5291 41.7886 20.8556C41.7778 15.1815 41.7521 14.4706 41.6464 12.2425C41.5408 10.0178 41.1847 8.50057 40.6654 7.17224C40.1286 5.79857 39.4123 4.63544 38.2492 3.4757C37.086 2.31729 35.9189 1.60371 34.5432 1.07359C33.2135 0.559059 31.6943 0.208349 29.4703 0.112229C27.2415 0.0133518 26.53 -0.00829592 20.8552 0.00252796C15.1819 0.0133936 14.4704 0.0377578 12.2416 0.144701M12.4853 37.9187C10.4482 37.8299 9.34193 37.4914 8.60465 37.2078C7.62841 36.83 6.93175 36.3771 6.19853 35.6493C5.46669 34.9188 5.01242 34.2241 4.63124 33.2499C4.34485 32.5126 4.00028 31.4077 3.90483 29.3705C3.80119 27.1682 3.77753 26.5074 3.76734 20.928C3.75655 15.35 3.77682 14.6892 3.87298 12.4848C3.96033 10.449 4.30088 9.34145 4.58385 8.60484C4.96164 7.62718 5.41315 6.9319 6.14232 6.19868C6.87283 5.46545 7.56744 5.01252 8.54238 4.63139C9.27895 4.34361 10.3839 4.00172 12.4203 3.90493C14.624 3.80066 15.2841 3.77831 20.862 3.76748C26.4413 3.75662 27.1021 3.77626 29.3065 3.87309C31.3422 3.96177 32.4498 4.29894 33.1858 4.58395C34.1627 4.96175 34.8593 5.41196 35.5919 6.14247C36.3244 6.87298 36.7787 7.56629 37.1598 8.5432C37.4475 9.27776 37.7895 10.384 37.8856 12.4199C37.9905 14.6236 38.0142 15.2843 38.0243 20.8624C38.0352 26.4417 38.0149 27.1025 37.9181 29.3055C37.8294 31.3427 37.4916 32.4496 37.2072 33.1876C36.8294 34.1632 36.3779 34.8599 35.648 35.5931C34.9183 36.3236 34.2236 36.7792 33.248 37.1604C32.5128 37.4474 31.4066 37.79 29.3714 37.8868C27.1678 37.9904 26.5076 38.0141 20.9277 38.0243C15.3498 38.0351 14.6897 38.0141 12.4853 37.9187M29.5197 9.72601C29.5224 11.1098 30.6476 12.2303 32.0314 12.2276C33.416 12.2249 34.5364 11.1003 34.5344 9.71648C34.5316 8.33265 33.4064 7.21152 32.022 7.21424C30.6375 7.21692 29.517 8.34214 29.5197 9.72597M10.1665 20.9158C10.178 26.8418 14.9909 31.6351 20.9155 31.6236C26.8408 31.6121 31.6367 26.8005 31.6252 20.8745C31.6137 14.9506 26.8001 10.1545 20.8742 10.166C14.9496 10.1775 10.155 14.9912 10.1665 20.9158M13.93 20.9084C13.9233 17.0622 17.0362 13.9377 20.8816 13.9309C24.7278 13.9235 27.8529 17.0351 27.8603 20.882C27.8678 24.7288 24.7548 27.8526 20.9081 27.8601C17.0626 27.8675 13.9375 24.7552 13.93 20.9084" fill="white"/>
</g>
</mask>
<g mask="url(#mask0_4068_33)">
<g id="Group_2">
<g id="Clip path group_2">
<mask id="mask1_4068_33" style="mask-type:luminance" maskUnits="userSpaceOnUse" x="-2" y="-2" width="46" height="46">
<g id="SVGID_00000075130749379876087420000012434501290736231839_">
<path id="Vector_2" d="M-1.68857 -1.63672H43.4458V43.4982H-1.68857V-1.63672Z" fill="white"/>
</g>
</mask>
<g mask="url(#mask1_4068_33)">
<g id="Group_3">
<g id="Clip path group_3">
<mask id="mask2_4068_33" style="mask-type:luminance" maskUnits="userSpaceOnUse" x="-2" y="-2" width="46" height="46">
<g id="SVGID_00000076589791919960347240000006817951357147468980_">
<path id="Vector_3" d="M-1.89752 -1.8457H43.6547V43.7072H-1.89752V-1.8457Z" fill="white"/>
</g>
</mask>
<g mask="url(#mask2_4068_33)">
<g id="Group_4">
<g id="Clip path group_4">
<mask id="mask3_4068_33" style="mask-type:luminance" maskUnits="userSpaceOnUse" x="-2" y="-2" width="46" height="46">
<g id="SVGID_00000057848519819832226150000010698714775723389572_">
<path id="Vector_4" d="M-1.89752 -1.8457H43.6547V43.7072H-1.89752V-1.8457Z" fill="white"/>
</g>
</mask>
<g mask="url(#mask3_4068_33)">
<g id="Group_5">
<rect id="Rectangle" x="-1.91236" y="-1.85254" width="45.5756" height="45.5756" fill="#D1D4D9"/>
</g>
</g>
</g>
</g>
</g>
</g>
</g>
</g>
</g>
</g>
</g>
</g>
</g>
</svg>
