<svg width="42" height="42" viewBox="0 0 42 42" fill="none" xmlns="http://www.w3.org/2000/svg">
<g id="5296765_camera_instagram_instagram logo_icon 1" clip-path="url(#clip0_42025_87)">
<rect width="42" height="42" fill="black"/>
<g id="Group">
<g id="Group_2">
<g id="Clip path group">
<mask id="mask0_42025_87" style="mask-type:luminance" maskUnits="userSpaceOnUse" x="0" y="0" width="42" height="42">
<g id="SVGID_00000170980134926788928000000000553113072940639111_">
<path id="Vector" d="M12.3461 0.249151C10.1228 0.354089 8.6042 0.710232 7.27721 1.2302C5.90354 1.76571 4.73912 2.48334 3.58075 3.64647C2.42105 4.81027 1.70881 5.97678 1.17735 7.35183C0.662819 8.68217 0.314156 10.2014 0.215947 12.4261C0.11849 14.6549 0.0961322 15.3658 0.106998 21.04C0.117822 26.7135 0.142855 27.4257 0.249129 29.6551C0.355404 31.8778 0.71021 33.3957 1.23017 34.7233C1.76635 36.097 2.48328 37.2608 3.64708 38.4199C4.8102 39.579 5.97734 40.2905 7.35306 40.8227C8.68202 41.3365 10.202 41.6866 12.426 41.784C14.6547 41.8822 15.3662 41.9039 21.039 41.893C26.7144 41.8822 27.4259 41.8571 29.6547 41.7515C31.878 41.6452 33.3952 41.2891 34.7235 40.7705C36.0972 40.233 37.2616 39.5173 38.4199 38.3536C39.5784 37.1904 40.2906 36.0232 40.8221 34.6475C41.3366 33.3185 41.6866 31.7986 41.7834 29.5759C41.8809 27.3458 41.9039 26.6335 41.8931 20.9601C41.8822 15.2859 41.8565 14.5751 41.7509 12.3469C41.6453 10.1223 41.2892 8.60506 40.7699 7.27673C40.233 5.90306 39.5168 4.73993 38.3537 3.58019C37.1905 2.42178 36.0234 1.7082 34.6477 1.17808C33.318 0.663551 31.7988 0.312841 29.5747 0.216722C27.346 0.117844 26.6345 0.0961963 20.9597 0.10702C15.2863 0.117886 14.5749 0.14225 12.3461 0.249193M12.5898 38.0232C10.5527 37.9344 9.44642 37.5959 8.70914 37.3123C7.7329 36.9345 7.03625 36.4816 6.30302 35.7538C5.57118 35.0233 5.11691 34.3286 4.73573 33.3544C4.44934 32.6171 4.10477 31.5122 4.00932 29.475C3.90568 27.2727 3.88203 26.6119 3.87183 21.0325C3.86105 15.4545 3.88131 14.7937 3.97748 12.5893C4.06482 10.5535 4.40537 9.44594 4.68834 8.70933C5.06613 7.73167 5.51764 7.03639 6.24681 6.30317C6.97732 5.56995 7.67193 5.11701 8.64687 4.73588C9.38344 4.44811 10.4884 4.10621 12.5248 4.00943C14.7285 3.90516 15.3886 3.8828 20.9665 3.87197C26.5458 3.86111 27.2066 3.88075 29.411 3.97758C31.4467 4.06626 32.5543 4.40343 33.2903 4.68845C34.2672 5.06624 34.9638 5.51645 35.6964 6.24696C36.4289 6.97747 36.8832 7.67078 37.2643 8.64769C37.552 9.38225 37.894 10.4885 37.9901 12.5244C38.095 14.7281 38.1187 15.3888 38.1288 20.9669C38.1397 26.5462 38.1194 27.207 38.0226 29.41C37.9339 31.4472 37.5961 32.5541 37.3117 33.2921C36.9339 34.2677 36.4823 34.9643 35.7525 35.6976C35.0227 36.4281 34.3281 36.8837 33.3525 37.2649C32.6173 37.5519 31.511 37.8945 29.4759 37.9913C27.2723 38.0949 26.6121 38.1186 21.0322 38.1288C15.4543 38.1396 14.7942 38.1186 12.5898 38.0232ZM29.6242 9.8305C29.6269 11.2143 30.7521 12.3348 32.1359 12.3321C33.5204 12.3294 34.6409 11.2048 34.6389 9.82097C34.6361 8.43715 33.5109 7.31602 32.1265 7.31873C30.742 7.32141 29.6215 8.44663 29.6242 9.83046M10.271 21.0203C10.2825 26.9463 15.0954 31.7396 21.02 31.7281C26.9453 31.7166 31.7412 26.905 31.7297 20.979C31.7182 15.055 26.9046 10.259 20.9787 10.2705C15.0541 10.282 10.2595 15.0957 10.271 21.0203ZM14.0345 21.0129C14.0278 17.1667 17.1407 14.0422 20.9861 14.0354C24.8323 14.028 27.9574 17.1396 27.9648 20.9865C27.9723 24.8333 24.8593 27.9571 21.0126 27.9646C17.1671 27.972 14.042 24.8597 14.0345 21.0129Z" fill="white"/>
</g>
</mask>
<g mask="url(#mask0_42025_87)">
<g id="Group_3">
<g id="Clip path group_2">
<mask id="mask1_42025_87" style="mask-type:luminance" maskUnits="userSpaceOnUse" x="-2" y="-2" width="46" height="46">
<g id="SVGID_00000075130749379876087420000012434501290736231839_">
<path id="Vector_2" d="M-1.58398 -1.53223H43.5503V43.6027H-1.58398V-1.53223Z" fill="white"/>
</g>
</mask>
<g mask="url(#mask1_42025_87)">
<g id="Group_4">
<g id="Clip path group_3">
<mask id="mask2_42025_87" style="mask-type:luminance" maskUnits="userSpaceOnUse" x="-2" y="-2" width="46" height="46">
<g id="SVGID_00000076589791919960347240000006817951357147468980_">
<path id="Vector_3" d="M-1.79297 -1.74121H43.7593V43.8117H-1.79297V-1.74121Z" fill="white"/>
</g>
</mask>
<g mask="url(#mask2_42025_87)">
<g id="Group_5">
<g id="Clip path group_4">
<mask id="mask3_42025_87" style="mask-type:luminance" maskUnits="userSpaceOnUse" x="-2" y="-2" width="46" height="46">
<g id="SVGID_00000057848519819832226150000010698714775723389572_">
<path id="Vector_4" d="M-1.79297 -1.74121H43.7593V43.8117H-1.79297V-1.74121Z" fill="white"/>
</g>
</mask>
<g mask="url(#mask3_42025_87)">
<g id="Group_6">
<rect id="Rectangle" x="-1.80762" y="-1.74805" width="45.5756" height="45.5756" fill="#D1D4D9"/>
</g>
</g>
</g>
</g>
</g>
</g>
</g>
</g>
</g>
</g>
</g>
</g>
</g>
</g>
</g>
<defs>
<clipPath id="clip0_42025_87">
<rect width="42" height="42" fill="white"/>
</clipPath>
</defs>
</svg>
