<svg width="1341" height="830" viewBox="0 0 1341 830" fill="none" xmlns="http://www.w3.org/2000/svg">
<path d="M13.1616 39.7022C19.0681 31.3998 27.0053 24.7427 36.2106 20.3747C46.8331 15.3342 58.7078 13.5436 70.3444 15.2278L104.452 20.1643C119.749 22.3782 135.273 22.5412 150.613 20.649L215.5 12.6452L320.381 2.18646C341.649 0.0655675 363.054 -0.347199 384.388 0.95213L725.203 21.7088C746.368 22.9977 767.601 22.6018 788.702 20.5248L974.748 2.21206C996.467 0.0742743 1018.32 -0.282517 1040.1 1.14526L1197.49 11.4641C1209.47 12.2501 1221.51 12.028 1233.46 10.8003L1275.24 6.50757C1283.94 5.61398 1292.72 6.94104 1300.77 10.3646C1323.52 20.0481 1336.23 44.4921 1331.09 68.6821L1327.6 85.0904C1326.55 90.0166 1326.03 95.0389 1326.03 100.075V119.151C1326.03 131.132 1326.88 143.098 1328.57 154.959L1334.13 193.957C1338 221.042 1339.07 248.452 1337.34 275.757L1327.91 424.56C1326.65 444.311 1326.87 464.128 1328.55 483.847L1337.49 588.66C1339.12 607.793 1338.55 627.049 1335.78 646.051L1328.42 696.706C1326.85 707.472 1328.17 718.461 1332.24 728.55L1337.01 740.353C1351.04 775.093 1325.46 812.993 1288 812.993L1238.38 808.811C1203.94 805.909 1169.27 807.482 1135.23 813.492L1081.62 822.958C1047.63 828.961 1013 830.538 978.599 827.649L734.607 807.163C713.02 805.35 691.321 805.294 669.724 806.996L397.961 828.406C367.642 830.794 337.151 829.717 307.076 825.196L186.563 807.077C174.94 805.33 163.113 805.44 151.525 807.403L67.5805 821.624C36.8987 826.822 9.77892 801.194 13.235 770.267C13.9082 764.243 13.4051 758.146 11.7537 752.314L6.25545 732.896C-1.11059 706.881 -1.29607 679.358 5.71868 653.247L11.5231 631.641C18.5675 605.419 20.9306 578.161 18.5038 551.118L10.4574 461.455C8.48917 439.523 8.33544 417.465 9.99781 395.507L18.876 278.235C21.0672 249.292 20.1015 220.197 15.9961 191.463L5.5 118L2.29828 79.2592C1.13699 65.2076 4.9883 51.191 13.1616 39.7022Z" fill="url(#paint0_linear_82_144)"/>
<defs>
<linearGradient id="paint0_linear_82_144" x1="38" y1="70.5" x2="1366" y2="810.5" gradientUnits="userSpaceOnUse">
<stop stop-color="#73BFEB"/>
<stop offset="1" stop-color="#DD587C"/>
</linearGradient>
</defs>
</svg>
