<svg width="394" height="437" viewBox="0 0 394 437" fill="none" xmlns="http://www.w3.org/2000/svg">
<g opacity="0.9">
<path d="M58.9315 386.842C-42.4762 367.563 157.865 251.233 83.1365 207.006C8.40821 162.78 55.7007 -35.5043 200.287 29.1196C344.873 93.7435 370.783 180.122 350.84 286.446C330.897 392.77 160.339 406.121 58.9315 386.842Z" fill="url(#paint0_linear_89_151)"/>
<path d="M58.9315 386.842C-42.4762 367.563 157.865 251.233 83.1365 207.006C8.40821 162.78 55.7007 -35.5043 200.287 29.1196C344.873 93.7435 370.783 180.122 350.84 286.446C330.897 392.77 160.339 406.121 58.9315 386.842Z" fill="url(#paint1_linear_89_151)"/>
</g>
<path d="M133.16 293.415C134.39 293.415 135.53 293.22 136.58 292.83C137.63 292.41 138.485 291.75 139.145 290.85C139.805 289.92 140.135 288.69 140.135 287.16C140.135 285.9 139.76 284.805 139.01 283.875C138.26 282.915 137.285 282.06 136.085 281.31C134.915 280.53 133.67 279.765 132.35 279.015C131.03 278.265 129.77 277.455 128.57 276.585C127.4 275.715 126.44 274.71 125.69 273.57C124.94 272.43 124.565 271.08 124.565 269.52C124.565 268.02 124.955 266.715 125.735 265.605C126.545 264.495 127.61 263.64 128.93 263.04C130.28 262.41 131.765 262.095 133.385 262.095C134.855 262.095 136.34 262.275 137.84 262.635C139.37 262.995 140.645 263.43 141.665 263.94C141.665 265.35 141.59 266.715 141.44 268.035C141.29 269.355 141.14 270.57 140.99 271.68L140.315 271.5C140.315 269.43 139.955 267.78 139.235 266.55C138.545 265.32 137.66 264.435 136.58 263.895C135.53 263.355 134.48 263.085 133.43 263.085C131.69 263.085 130.28 263.61 129.2 264.66C128.12 265.68 127.58 266.985 127.58 268.575C127.58 269.895 127.955 271.02 128.705 271.95C129.455 272.88 130.415 273.72 131.585 274.47C132.785 275.19 134.045 275.91 135.365 276.63C136.685 277.32 137.93 278.085 139.1 278.925C140.3 279.765 141.275 280.77 142.025 281.94C142.775 283.08 143.15 284.46 143.15 286.08C143.15 288.06 142.655 289.665 141.665 290.895C140.705 292.125 139.46 293.025 137.93 293.595C136.4 294.165 134.795 294.45 133.115 294.45C132.185 294.45 131.18 294.345 130.1 294.135C129.05 293.955 128.03 293.655 127.04 293.235C126.05 292.815 125.195 292.275 124.475 291.615C124.475 290.205 124.535 288.915 124.655 287.745C124.775 286.575 124.895 285.435 125.015 284.325L125.69 284.46C125.69 286.5 126.035 288.195 126.725 289.545C127.415 290.865 128.33 291.84 129.47 292.47C130.61 293.1 131.84 293.415 133.16 293.415ZM160.673 272.265C162.203 272.265 163.508 272.595 164.588 273.255C165.668 273.915 166.523 274.8 167.153 275.91C167.813 276.99 168.293 278.19 168.593 279.51C168.893 280.8 169.043 282.105 169.043 283.425C169.043 285.495 168.608 287.37 167.738 289.05C166.868 290.7 165.668 292.02 164.138 293.01C162.608 293.97 160.853 294.45 158.873 294.45C157.733 294.45 156.758 294.345 155.948 294.135C155.138 293.925 154.403 293.625 153.743 293.235V298.545C153.743 300.165 153.773 301.455 153.833 302.415C153.893 303.405 154.043 304.14 154.283 304.62C154.553 305.1 154.943 305.415 155.453 305.565C155.963 305.715 156.668 305.79 157.568 305.79L157.658 306.33H146.768L146.858 305.79C147.728 305.79 148.418 305.715 148.928 305.565C149.438 305.415 149.813 305.1 150.053 304.62C150.293 304.14 150.443 303.405 150.503 302.415C150.563 301.455 150.593 300.165 150.593 298.545V279.555C150.593 278.115 150.563 276.975 150.503 276.135C150.443 275.295 150.293 274.68 150.053 274.29C149.813 273.87 149.438 273.6 148.928 273.48C148.418 273.36 147.728 273.3 146.858 273.3L146.768 272.805C146.768 272.805 147.083 272.76 147.713 272.67C148.373 272.58 149.228 272.49 150.278 272.4C151.328 272.31 152.483 272.265 153.743 272.265V278.16C154.043 277.23 154.463 276.315 155.003 275.415C155.573 274.515 156.323 273.765 157.253 273.165C158.183 272.565 159.323 272.265 160.673 272.265ZM158.288 293.145C159.728 293.145 160.913 292.86 161.843 292.29C162.803 291.72 163.553 290.97 164.093 290.04C164.663 289.08 165.053 288.03 165.263 286.89C165.503 285.75 165.623 284.595 165.623 283.425C165.623 282.495 165.548 281.475 165.398 280.365C165.248 279.225 164.963 278.16 164.543 277.17C164.153 276.15 163.583 275.31 162.833 274.65C162.113 273.99 161.153 273.66 159.953 273.66C158.993 273.66 158.153 273.93 157.433 274.47C156.743 274.98 156.158 275.655 155.678 276.495C155.198 277.335 154.808 278.22 154.508 279.15C154.238 280.08 154.043 280.95 153.923 281.76C153.803 282.57 153.743 283.23 153.743 283.74V290.76C154.163 291.51 154.793 292.095 155.633 292.515C156.473 292.935 157.358 293.145 158.288 293.145ZM182.613 272.265C184.773 272.265 186.618 272.775 188.148 273.795C189.708 274.785 190.893 276.12 191.703 277.8C192.543 279.48 192.963 281.34 192.963 283.38C192.963 285.39 192.558 287.235 191.748 288.915C190.968 290.595 189.828 291.945 188.328 292.965C186.828 293.955 185.013 294.45 182.883 294.45C180.783 294.45 178.953 293.955 177.393 292.965C175.863 291.945 174.678 290.595 173.838 288.915C173.028 287.235 172.623 285.39 172.623 283.38C172.623 281.34 173.013 279.48 173.793 277.8C174.573 276.12 175.713 274.785 177.213 273.795C178.713 272.775 180.513 272.265 182.613 272.265ZM182.883 293.55C184.413 293.55 185.673 293.1 186.663 292.2C187.653 291.27 188.373 290.04 188.823 288.51C189.303 286.95 189.543 285.24 189.543 283.38C189.543 281.49 189.288 279.78 188.778 278.25C188.268 276.69 187.503 275.46 186.483 274.56C185.463 273.63 184.188 273.165 182.658 273.165C181.158 273.165 179.913 273.63 178.923 274.56C177.933 275.46 177.198 276.69 176.718 278.25C176.268 279.78 176.043 281.49 176.043 283.38C176.043 285.24 176.298 286.95 176.808 288.51C177.318 290.04 178.083 291.27 179.103 292.2C180.123 293.1 181.383 293.55 182.883 293.55ZM202.693 267.18V272.715H208.228V273.705H202.693V290.85C202.693 291.51 202.843 292.02 203.143 292.38C203.443 292.74 203.833 292.92 204.313 292.92C204.913 292.92 205.513 292.845 206.113 292.695C206.713 292.515 207.388 292.275 208.138 291.975L208.228 292.47C207.388 293.01 206.503 293.475 205.573 293.865C204.643 294.255 203.668 294.45 202.648 294.45C201.658 294.45 200.893 294.21 200.353 293.73C199.813 293.25 199.543 292.35 199.543 291.03V273.705H196.843V272.715C198.043 272.715 198.958 272.475 199.588 271.995C200.218 271.485 200.683 270.81 200.983 269.97C201.283 269.13 201.523 268.23 201.703 267.27L202.693 267.18ZM218.189 272.265V286.575C218.189 288.135 218.219 289.38 218.279 290.31C218.339 291.21 218.489 291.885 218.729 292.335C218.969 292.785 219.344 293.085 219.854 293.235C220.364 293.385 221.069 293.46 221.969 293.46L222.059 294H211.079L211.169 293.46C212.099 293.46 212.819 293.385 213.329 293.235C213.869 293.085 214.259 292.785 214.499 292.335C214.739 291.855 214.889 291.15 214.949 290.22C215.009 289.29 215.039 288.045 215.039 286.485V282.885C215.039 280.695 214.994 278.955 214.904 277.665C214.844 276.375 214.664 275.415 214.364 274.785C214.064 274.155 213.614 273.75 213.014 273.57C212.444 273.36 211.634 273.255 210.584 273.255L210.494 272.76C210.494 272.76 210.869 272.715 211.619 272.625C212.399 272.535 213.374 272.46 214.544 272.4C215.714 272.31 216.929 272.265 218.189 272.265ZM213.914 265.065C213.914 264.375 214.169 263.775 214.679 263.265C215.189 262.755 215.789 262.5 216.479 262.5C217.169 262.5 217.769 262.755 218.279 263.265C218.789 263.775 219.044 264.375 219.044 265.065C219.044 265.755 218.789 266.355 218.279 266.865C217.769 267.375 217.169 267.63 216.479 267.63C215.789 267.63 215.189 267.375 214.679 266.865C214.169 266.355 213.914 265.755 213.914 265.065ZM232.606 273.705V283.83C232.606 286.02 232.651 287.76 232.741 289.05C232.831 290.34 233.011 291.3 233.281 291.93C233.581 292.56 234.016 292.98 234.586 293.19C235.186 293.37 235.996 293.46 237.016 293.46L237.106 294H225.001L225.091 293.46C226.111 293.46 226.906 293.37 227.476 293.19C228.076 292.98 228.511 292.56 228.781 291.93C229.081 291.3 229.261 290.34 229.321 289.05C229.411 287.76 229.456 286.02 229.456 283.83V273.705H225.316V272.715H229.456C229.456 270.045 229.666 267.915 230.086 266.325C230.536 264.705 231.106 263.475 231.796 262.635C232.516 261.765 233.311 261.195 234.181 260.925C235.051 260.625 235.936 260.475 236.836 260.475C237.826 260.475 238.831 260.67 239.851 261.06C240.901 261.42 241.771 261.915 242.461 262.545C243.151 263.175 243.496 263.865 243.496 264.615C243.496 265.065 243.331 265.455 243.001 265.785C242.671 266.115 242.251 266.28 241.741 266.28C241.021 266.28 240.481 266.055 240.121 265.605C239.761 265.125 239.446 264.6 239.176 264.03C238.936 263.43 238.606 262.905 238.186 262.455C237.796 261.975 237.196 261.735 236.386 261.735C235.276 261.735 234.451 262.095 233.911 262.815C233.371 263.535 233.011 264.555 232.831 265.875C232.681 267.195 232.606 268.77 232.606 270.6V272.715H238.546V273.705H232.606ZM243.831 303.45C245.421 303.45 246.711 302.835 247.701 301.605C248.691 300.375 249.681 298.545 250.671 296.115L243.966 279.195C243.246 277.365 242.586 276.03 241.986 275.19C241.386 274.35 240.801 273.825 240.231 273.615C239.661 273.375 239.061 273.255 238.431 273.255L238.341 272.715H249.501L249.411 273.255C248.331 273.255 247.596 273.435 247.206 273.795C246.816 274.125 246.621 274.62 246.621 275.28C246.621 276.09 246.816 277.125 247.206 278.385C247.596 279.645 248.106 281.07 248.736 282.66L252.201 291.39L255.711 280.59C256.131 279.33 256.401 278.325 256.521 277.575C256.671 276.795 256.746 276.165 256.746 275.685C256.746 274.965 256.521 274.38 256.071 273.93C255.621 273.48 254.796 273.255 253.596 273.255L253.506 272.715H261.966L261.876 273.255C261.246 273.255 260.736 273.33 260.346 273.48C259.956 273.63 259.596 273.975 259.266 274.515C258.936 275.055 258.561 275.91 258.141 277.08C257.721 278.22 257.181 279.795 256.521 281.805L252.471 294.135C251.151 298.185 249.606 301.305 247.836 303.495C246.066 305.685 244.221 306.78 242.301 306.78C241.491 306.78 240.786 306.615 240.186 306.285C239.586 305.955 239.286 305.46 239.286 304.8C239.286 304.14 239.481 303.645 239.871 303.315C240.291 303.015 240.681 302.865 241.041 302.865C241.701 302.865 242.196 302.955 242.526 303.135C242.856 303.345 243.291 303.45 243.831 303.45Z" fill="black"/>
<path d="M200.5 108C175.963 108 156 128.187 156 153C156 177.813 175.963 198 200.5 198C225.037 198 245 177.815 245 153C245 128.185 225.037 108 200.5 108ZM219.335 173.226C218.777 174.075 217.856 174.533 216.918 174.533C216.365 174.533 215.806 174.374 215.311 174.04C210.528 170.815 202.417 168.664 195.648 168.666C188.465 168.67 183.08 170.453 183.026 170.471C181.51 170.991 179.864 170.154 179.357 168.617C178.851 167.079 179.672 165.417 181.193 164.907C181.448 164.821 187.534 162.804 195.648 162.8C202.417 162.796 211.831 164.643 218.531 169.158C219.865 170.058 220.225 171.879 219.335 173.226ZM225.122 161.218C224.494 162.239 223.409 162.8 222.3 162.8C221.701 162.8 221.094 162.638 220.548 162.292C211.876 156.827 202.964 155.672 195.286 155.74C186.618 155.818 179.686 157.49 179.568 157.526C177.814 158.03 175.969 156.994 175.468 155.212C174.967 153.426 175.994 151.57 177.758 151.066C178.294 150.911 185.212 149.19 194.682 149.11C203.318 149.038 214.079 150.303 224.062 156.593C225.615 157.571 226.093 159.644 225.122 161.218ZM230.895 147.176C230.174 148.416 228.882 149.106 227.555 149.106C226.89 149.106 226.217 148.932 225.6 148.568C215.493 142.568 203.204 141.295 194.675 141.283C194.634 141.283 194.593 141.283 194.553 141.283C184.239 141.283 176.296 143.118 176.216 143.137C174.131 143.62 172.056 142.318 171.573 140.213C171.089 138.111 172.379 136.01 174.458 135.519C174.816 135.435 183.303 133.46 194.553 133.46C194.597 133.46 194.642 133.46 194.686 133.46C204.173 133.474 217.916 134.933 229.518 141.821C231.359 142.916 231.976 145.314 230.895 147.176Z" fill="black"/>
<defs>
<linearGradient id="paint0_linear_89_151" x1="357.836" y1="249.15" x2="35.0808" y2="188.611" gradientUnits="userSpaceOnUse">
<stop stop-color="#DF5E7D"/>
<stop offset="1" stop-color="#99DAF7"/>
</linearGradient>
<linearGradient id="paint1_linear_89_151" x1="357.836" y1="249.15" x2="35.0808" y2="188.611" gradientUnits="userSpaceOnUse">
<stop stop-color="#DF5E7D"/>
<stop offset="1" stop-color="#99DAF7"/>
</linearGradient>
</defs>
</svg>
