<svg width="42" height="42" viewBox="0 0 42 42" fill="none" xmlns="http://www.w3.org/2000/svg">
<g id="5305164_play_video_youtube_youtube logo_icon 1">
<path id="Vector" d="M41.1225 10.8907C40.6396 9.08353 39.2165 7.66054 37.4094 7.17754C34.1337 6.2998 21 6.2998 21 6.2998C21 6.2998 7.86622 6.2998 4.59055 7.17754C2.78373 7.66054 1.36041 9.08353 0.877488 10.8907C0 14.166 0 21 0 21C0 21 0 27.8339 0.877488 31.1089C1.36041 32.9161 2.78373 34.3395 4.59055 34.8224C7.86622 35.6998 21 35.6998 21 35.6998C21 35.6998 34.1337 35.6998 37.4094 34.8224C39.2165 34.3395 40.6396 32.9161 41.1225 31.1089C41.9999 27.8339 41.9999 21 41.9999 21C41.9999 21 41.9999 14.166 41.1225 10.8907ZM16.7998 27.3001V14.6999L27.7115 21L16.7998 27.3001Z" fill="#D1D4D9"/>
</g>
</svg>
