<svg width="412" height="407" viewBox="0 0 412 407" fill="none" xmlns="http://www.w3.org/2000/svg">
<g opacity="0.9">
<path d="M361.696 163.95C403.155 265.516 422.297 301.885 270.358 333.492C159.009 356.656 96.2746 354.322 54.8153 252.756C-6.51215 114.445 -4.89147 119.683 121.813 74.3041C229.168 29.8885 320.237 62.3832 361.696 163.95Z" fill="url(#paint0_linear_28_61)"/>
<path d="M361.696 163.95C403.155 265.516 422.297 301.885 270.358 333.492C159.009 356.656 96.2746 354.322 54.8153 252.756C-6.51215 114.445 -4.89147 119.683 121.813 74.3041C229.168 29.8885 320.237 62.3832 361.696 163.95Z" fill="url(#paint1_linear_28_61)"/>
</g>
<path d="M143.45 257.783V261.113C143.45 263.303 143.495 265.043 143.585 266.333C143.675 267.623 143.885 268.583 144.215 269.213C144.545 269.843 145.07 270.263 145.79 270.473C146.51 270.653 147.485 270.743 148.715 270.743L148.805 271.283H134.945L135.035 270.743C136.295 270.743 137.27 270.653 137.96 270.473C138.68 270.263 139.205 269.843 139.535 269.213C139.865 268.583 140.075 267.623 140.165 266.333C140.255 265.043 140.3 263.303 140.3 261.113V258.278L135.26 249.773C133.97 247.583 132.905 245.858 132.065 244.598C131.255 243.308 130.55 242.363 129.95 241.763C129.38 241.163 128.81 240.773 128.24 240.593C127.67 240.413 126.98 240.323 126.17 240.323L126.08 239.783H137.285L137.195 240.323C136.265 240.323 135.575 240.383 135.125 240.503C134.705 240.623 134.495 240.938 134.495 241.448C134.495 242.048 134.855 242.993 135.575 244.283C136.295 245.543 137.345 247.373 138.725 249.773L142.775 256.748L146.24 249.773C147.32 247.583 148.1 245.888 148.58 244.688C149.09 243.488 149.345 242.543 149.345 241.853C149.345 241.163 149.105 240.743 148.625 240.593C148.145 240.413 147.38 240.323 146.33 240.323L146.24 239.783H156.32L156.23 240.323C155.21 240.323 154.37 240.413 153.71 240.593C153.08 240.743 152.48 241.118 151.91 241.718C151.37 242.318 150.74 243.263 150.02 244.553C149.33 245.813 148.445 247.553 147.365 249.773L143.45 257.783ZM164.256 249.548C166.416 249.548 168.261 250.058 169.791 251.078C171.351 252.068 172.536 253.403 173.346 255.083C174.186 256.763 174.606 258.623 174.606 260.663C174.606 262.673 174.201 264.518 173.391 266.198C172.611 267.878 171.471 269.228 169.971 270.248C168.471 271.238 166.656 271.733 164.526 271.733C162.426 271.733 160.596 271.238 159.036 270.248C157.506 269.228 156.321 267.878 155.481 266.198C154.671 264.518 154.266 262.673 154.266 260.663C154.266 258.623 154.656 256.763 155.436 255.083C156.216 253.403 157.356 252.068 158.856 251.078C160.356 250.058 162.156 249.548 164.256 249.548ZM164.526 270.833C166.056 270.833 167.316 270.383 168.306 269.483C169.296 268.553 170.016 267.323 170.466 265.793C170.946 264.233 171.186 262.523 171.186 260.663C171.186 258.773 170.931 257.063 170.421 255.533C169.911 253.973 169.146 252.743 168.126 251.843C167.106 250.913 165.831 250.448 164.301 250.448C162.801 250.448 161.556 250.913 160.566 251.843C159.576 252.743 158.841 253.973 158.361 255.533C157.911 257.063 157.686 258.773 157.686 260.663C157.686 262.523 157.941 264.233 158.451 265.793C158.961 267.323 159.726 268.553 160.746 269.483C161.766 270.383 163.026 270.833 164.526 270.833ZM195.901 259.358C195.901 257.468 195.841 255.938 195.721 254.768C195.631 253.598 195.436 252.713 195.136 252.113C194.866 251.483 194.431 251.063 193.831 250.853C193.231 250.643 192.436 250.538 191.446 250.538L191.356 250.043C191.356 250.043 191.731 249.998 192.481 249.908C193.261 249.818 194.236 249.743 195.406 249.683C196.576 249.593 197.791 249.548 199.051 249.548V261.293C199.051 263.423 199.081 265.073 199.141 266.243C199.231 267.413 199.411 268.238 199.681 268.718C199.951 269.168 200.356 269.393 200.896 269.393C201.286 269.393 201.646 269.333 201.976 269.213C202.306 269.063 202.621 268.913 202.921 268.763L203.146 269.213C203.146 269.213 202.831 269.408 202.201 269.798C201.601 270.158 200.791 270.533 199.771 270.923C198.751 271.313 197.611 271.508 196.351 271.508C196.231 270.728 196.126 269.903 196.036 269.033C195.946 268.133 195.901 266.948 195.901 265.478C195.601 266.438 195.166 267.398 194.596 268.358C194.056 269.318 193.306 270.128 192.346 270.788C191.416 271.418 190.216 271.733 188.746 271.733C186.436 271.733 184.711 271.118 183.571 269.888C182.431 268.628 181.861 266.843 181.861 264.533V260.168C181.861 257.978 181.816 256.238 181.726 254.948C181.666 253.658 181.486 252.698 181.186 252.068C180.886 251.438 180.436 251.033 179.836 250.853C179.266 250.643 178.456 250.538 177.406 250.538L177.316 250.043C177.316 250.043 177.691 249.998 178.441 249.908C179.221 249.818 180.196 249.743 181.366 249.683C182.536 249.593 183.751 249.548 185.011 249.548V264.083C185.011 266.003 185.311 267.533 185.911 268.673C186.511 269.783 187.636 270.338 189.286 270.338C190.546 270.338 191.596 269.963 192.436 269.213C193.276 268.463 193.951 267.518 194.461 266.378C194.971 265.238 195.331 264.038 195.541 262.778C195.781 261.518 195.901 260.378 195.901 259.358ZM212.197 244.463V249.998H217.732V250.988H212.197V268.133C212.197 268.793 212.347 269.303 212.647 269.663C212.947 270.023 213.337 270.203 213.817 270.203C214.417 270.203 215.017 270.128 215.617 269.978C216.217 269.798 216.892 269.558 217.642 269.258L217.732 269.753C216.892 270.293 216.007 270.758 215.077 271.148C214.147 271.538 213.172 271.733 212.152 271.733C211.162 271.733 210.397 271.493 209.857 271.013C209.317 270.533 209.047 269.633 209.047 268.313V250.988H206.347V249.998C207.547 249.998 208.462 249.758 209.092 249.278C209.722 248.768 210.187 248.093 210.487 247.253C210.787 246.413 211.027 245.513 211.207 244.553L212.197 244.463ZM238.132 259.358C238.132 257.468 238.072 255.938 237.952 254.768C237.862 253.598 237.667 252.713 237.367 252.113C237.097 251.483 236.662 251.063 236.062 250.853C235.462 250.643 234.667 250.538 233.677 250.538L233.587 250.043C233.587 250.043 233.962 249.998 234.712 249.908C235.492 249.818 236.467 249.743 237.637 249.683C238.807 249.593 240.022 249.548 241.282 249.548V261.293C241.282 263.423 241.312 265.073 241.372 266.243C241.462 267.413 241.642 268.238 241.912 268.718C242.182 269.168 242.587 269.393 243.127 269.393C243.517 269.393 243.877 269.333 244.207 269.213C244.537 269.063 244.852 268.913 245.152 268.763L245.377 269.213C245.377 269.213 245.062 269.408 244.432 269.798C243.832 270.158 243.022 270.533 242.002 270.923C240.982 271.313 239.842 271.508 238.582 271.508C238.462 270.728 238.357 269.903 238.267 269.033C238.177 268.133 238.132 266.948 238.132 265.478C237.832 266.438 237.397 267.398 236.827 268.358C236.287 269.318 235.537 270.128 234.577 270.788C233.647 271.418 232.447 271.733 230.977 271.733C228.667 271.733 226.942 271.118 225.802 269.888C224.662 268.628 224.092 266.843 224.092 264.533V260.168C224.092 257.978 224.047 256.238 223.957 254.948C223.897 253.658 223.717 252.698 223.417 252.068C223.117 251.438 222.667 251.033 222.067 250.853C221.497 250.643 220.687 250.538 219.637 250.538L219.547 250.043C219.547 250.043 219.922 249.998 220.672 249.908C221.452 249.818 222.427 249.743 223.597 249.683C224.767 249.593 225.982 249.548 227.242 249.548V264.083C227.242 266.003 227.542 267.533 228.142 268.673C228.742 269.783 229.867 270.338 231.517 270.338C232.777 270.338 233.827 269.963 234.667 269.213C235.507 268.463 236.182 267.518 236.692 266.378C237.202 265.238 237.562 264.038 237.772 262.778C238.012 261.518 238.132 260.378 238.132 259.358ZM261.314 249.548C262.844 249.548 264.149 249.878 265.229 250.538C266.309 251.198 267.179 252.083 267.839 253.193C268.499 254.273 268.979 255.473 269.279 256.793C269.579 258.083 269.729 259.388 269.729 260.708C269.729 262.778 269.279 264.653 268.379 266.333C267.479 267.983 266.189 269.303 264.509 270.293C262.829 271.253 260.819 271.733 258.479 271.733C256.889 271.733 255.554 271.628 254.474 271.418C253.424 271.208 252.629 271.013 252.089 270.833C251.549 270.623 251.279 270.518 251.279 270.518V246.173C251.279 244.553 251.249 243.278 251.189 242.348C251.129 241.418 250.979 240.728 250.739 240.278C250.499 239.828 250.124 239.543 249.614 239.423C249.104 239.303 248.399 239.243 247.499 239.243L247.409 238.748C247.409 238.748 247.724 238.703 248.354 238.613C249.014 238.523 249.869 238.433 250.919 238.343C251.999 238.253 253.169 238.208 254.429 238.208V255.443C254.759 254.453 255.194 253.508 255.734 252.608C256.304 251.708 257.039 250.973 257.939 250.403C258.839 249.833 259.964 249.548 261.314 249.548ZM258.884 270.428C260.324 270.428 261.524 270.113 262.484 269.483C263.444 268.853 264.194 268.043 264.734 267.053C265.304 266.063 265.709 265.013 265.949 263.903C266.189 262.763 266.309 261.698 266.309 260.708C266.309 259.778 266.234 258.758 266.084 257.648C265.934 256.508 265.649 255.443 265.229 254.453C264.839 253.433 264.269 252.593 263.519 251.933C262.769 251.273 261.794 250.943 260.594 250.943C259.454 250.943 258.479 251.318 257.669 252.068C256.889 252.818 256.259 253.748 255.779 254.858C255.299 255.968 254.954 257.078 254.744 258.188C254.534 259.268 254.429 260.138 254.429 260.798V269.078C255.089 269.588 255.794 269.948 256.544 270.158C257.294 270.338 258.074 270.428 258.884 270.428ZM291.494 259.898H276.734V260.663C276.734 262.913 277.064 264.758 277.724 266.198C278.384 267.638 279.254 268.703 280.334 269.393C281.414 270.083 282.569 270.428 283.799 270.428C285.059 270.428 286.274 270.158 287.444 269.618C288.644 269.048 289.589 268.118 290.279 266.828L290.954 267.188C290.114 268.838 288.989 270.008 287.579 270.698C286.199 271.388 284.714 271.733 283.124 271.733C281.444 271.733 279.854 271.328 278.354 270.518C276.854 269.678 275.639 268.433 274.709 266.783C273.779 265.133 273.314 263.093 273.314 260.663C273.314 258.623 273.689 256.763 274.439 255.083C275.189 253.403 276.254 252.068 277.634 251.078C279.044 250.058 280.739 249.548 282.719 249.548C284.669 249.548 286.289 250.013 287.579 250.943C288.869 251.873 289.844 253.118 290.504 254.678C291.164 256.238 291.494 257.978 291.494 259.898ZM282.764 250.448C280.934 250.448 279.539 251.228 278.579 252.788C277.619 254.348 277.034 256.283 276.824 258.593H288.029C287.939 256.133 287.489 254.168 286.679 252.698C285.869 251.198 284.564 250.448 282.764 250.448Z" fill="black"/>
<path d="M244.103 134.13C243.33 129.863 239.647 126.756 235.373 125.786C228.977 124.43 217.14 123.46 204.333 123.46C191.534 123.46 179.507 124.43 173.104 125.786C168.837 126.756 165.147 129.666 164.374 134.13C163.593 138.98 162.82 145.77 162.82 154.5C162.82 163.23 163.593 170.02 164.563 174.87C165.344 179.136 169.027 182.243 173.293 183.213C180.083 184.57 191.723 185.54 204.53 185.54C217.337 185.54 228.977 184.57 235.767 183.213C240.034 182.243 243.717 179.333 244.497 174.87C245.27 170.02 246.24 163.033 246.437 154.5C246.043 145.77 245.073 138.98 244.103 134.13ZM193.86 168.08V140.92L217.527 154.5L193.86 168.08Z" fill="black"/>
<defs>
<linearGradient id="paint0_linear_28_61" x1="147.391" y1="60.9798" x2="265.06" y2="345.392" gradientUnits="userSpaceOnUse">
<stop stop-color="#DB6080"/>
<stop offset="1" stop-color="#9CDBF6"/>
</linearGradient>
<linearGradient id="paint1_linear_28_61" x1="147.391" y1="60.9798" x2="265.06" y2="345.392" gradientUnits="userSpaceOnUse">
<stop stop-color="#DB6080"/>
<stop offset="1" stop-color="#9CDBF6"/>
</linearGradient>
</defs>
</svg>
